<svg version="1.0" xmlns="http://www.w3.org/2000/svg"  viewBox="0 0 255.969364 222.003563"  ><g transform="translate(-69.030857,255.003563) scale(0.100000,-0.100000)" fill="#000000" stroke="none"><path fill="#6EDDFB" d="M1057 2535 c-257 -71 -418 -345 -352 -600 24 -90 71 -169 141 -235 197 -184 481 -184 679 2 69 64 130 167 141 240 9 53 20 56 28 6 20 -124 141 -276 267 -336 188 -90 404 -55 553 88 202 194 209 503 16 700 -67 69 -131 108 -219 132 -271 75 -551 -89 -615 -360 -8 -31 -16 -50 -18 -42 -63 207 -127 296 -264 365 -106 54 -249 70 -357 40z m208 -294 c70 -32 125 -113 125 -187 0 -64 -51 -144 -112 -175 -117 -59 -253 4 -289 135 -42 153 129 294 276 227z m983 3 c164 -68 175 -286 19 -366 -151 -77 -321 58 -285 225 25 118 156 187 266 141z"/><path fill="#6EDDFB" d="M1440 1530 c-127 -68 -304 -77 -449 -25 -74 27 -74 27 -100 7 -14 -10 -39 -41 -56 -67 l-30 -48 -3 -425 c-3 -468 -2 -481 58 -554 17 -20 53 -48 82 -62 l52 -26 679 0 c492 0 691 3 719 12 51 15 126 82 149 133 17 37 19 74 19 470 0 411 -1 432 -21 475 -21 47 -52 85 -82 101 -12 7 -38 2 -89 -16 -141 -51 -305 -43 -438 21 l-72 34 -181 -1 c-181 0 -182 0 -237 -29z"/><path fill="#6EDDFB" d="M3110 1449 c-14 -6 -123 -67 -243 -136 l-217 -126 2 -245 3 -245 229 -133 c239 -139 268 -150 314 -118 51 36 52 41 52 504 0 478 1 468 -67 496 -37 16 -39 16 -73 3z"/></g></svg>